<svg width="752" height="871" viewBox="0 0 752 871" fill="none" xmlns="http://www.w3.org/2000/svg">
<g filter="url(#filter0_f_286_35)">
<path d="M584.553 458.815C699.35 512.148 591.776 686.634 581.897 695.18C433.877 823.223 352.467 905.389 237.67 852.056C122.873 798.723 68.4765 777.451 119.849 666.874C171.221 556.297 469.757 405.482 584.553 458.815Z" fill="#902BDF"/>
</g>
<g filter="url(#filter1_f_286_35)">
<path d="M652 433.554C652 560.049 448.351 536.022 436.433 530.667C257.873 450.431 149.011 411.246 149.011 284.751C149.011 158.256 145.383 100 267.359 100C389.336 100 652 307.059 652 433.554Z" fill="#2F2BDF"/>
</g>
<defs>
<filter id="filter0_f_286_35" x="0.428711" y="347.746" width="736.681" height="620.812" filterUnits="userSpaceOnUse" color-interpolation-filters="sRGB">
<feFlood flood-opacity="0" result="BackgroundImageFix"/>
<feBlend mode="normal" in="SourceGraphic" in2="BackgroundImageFix" result="shape"/>
<feGaussianBlur stdDeviation="50" result="effect1_foregroundBlur_286_35"/>
</filter>
<filter id="filter1_f_286_35" x="49" y="0" width="703" height="636" filterUnits="userSpaceOnUse" color-interpolation-filters="sRGB">
<feFlood flood-opacity="0" result="BackgroundImageFix"/>
<feBlend mode="normal" in="SourceGraphic" in2="BackgroundImageFix" result="shape"/>
<feGaussianBlur stdDeviation="50" result="effect1_foregroundBlur_286_35"/>
</filter>
</defs>
</svg>
